<?xml version="1.0" encoding="utf-8" standalone="no"?>
<!DOCTYPE svg PUBLIC "-//W3C//DTD SVG 1.1//EN"
  "http://www.w3.org/Graphics/SVG/1.1/DTD/svg11.dtd">
<!-- Created with matplotlib (https://matplotlib.org/) -->
<svg height="432pt" version="1.1" viewBox="0 0 720 432" width="720pt" xmlns="http://www.w3.org/2000/svg" xmlns:xlink="http://www.w3.org/1999/xlink">
 <metadata>
  <rdf:RDF xmlns:cc="http://creativecommons.org/ns#" xmlns:dc="http://purl.org/dc/elements/1.1/" xmlns:rdf="http://www.w3.org/1999/02/22-rdf-syntax-ns#">
   <cc:Work>
    <dc:type rdf:resource="http://purl.org/dc/dcmitype/StillImage"/>
    <dc:date>2023-08-11T21:37:11.598943</dc:date>
    <dc:format>image/svg+xml</dc:format>
    <dc:creator>
     <cc:Agent>
      <dc:title>Matplotlib v3.3.4, https://matplotlib.org/</dc:title>
     </cc:Agent>
    </dc:creator>
   </cc:Work>
  </rdf:RDF>
 </metadata>
 <defs>
  <style type="text/css">*{stroke-linecap:butt;stroke-linejoin:round;}</style>
 </defs>
 <g id="figure_1">
  <g id="patch_1">
   <path d="M 0 432 
L 720 432 
L 720 0 
L 0 0 
z
" style="fill:none;"/>
  </g>
  <g id="axes_1">
   <g id="patch_2">
    <path d="M 90 200.094545 
L 648 200.094545 
L 648 51.84 
L 90 51.84 
z
" style="fill:#ffffff;"/>
   </g>
   <g id="matplotlib.axis_1">
    <g id="xtick_1">
     <g id="line2d_1">
      <defs>
       <path d="M 0 0 
L 0 3.5 
" id="m28432dc30d" style="stroke:#000000;stroke-width:0.8;"/>
      </defs>
      <g>
       <use style="stroke:#000000;stroke-width:0.8;" x="90" xlink:href="#m28432dc30d" y="200.094545"/>
      </g>
     </g>
    </g>
    <g id="xtick_2">
     <g id="line2d_2">
      <g>
       <use style="stroke:#000000;stroke-width:0.8;" x="183" xlink:href="#m28432dc30d" y="200.094545"/>
      </g>
     </g>
    </g>
    <g id="xtick_3">
     <g id="line2d_3">
      <g>
       <use style="stroke:#000000;stroke-width:0.8;" x="276" xlink:href="#m28432dc30d" y="200.094545"/>
      </g>
     </g>
    </g>
    <g id="xtick_4">
     <g id="line2d_4">
      <g>
       <use style="stroke:#000000;stroke-width:0.8;" x="369" xlink:href="#m28432dc30d" y="200.094545"/>
      </g>
     </g>
    </g>
    <g id="xtick_5">
     <g id="line2d_5">
      <g>
       <use style="stroke:#000000;stroke-width:0.8;" x="462" xlink:href="#m28432dc30d" y="200.094545"/>
      </g>
     </g>
    </g>
    <g id="xtick_6">
     <g id="line2d_6">
      <g>
       <use style="stroke:#000000;stroke-width:0.8;" x="555" xlink:href="#m28432dc30d" y="200.094545"/>
      </g>
     </g>
    </g>
    <g id="xtick_7">
     <g id="line2d_7">
      <g>
       <use style="stroke:#000000;stroke-width:0.8;" x="648" xlink:href="#m28432dc30d" y="200.094545"/>
      </g>
     </g>
    </g>
   </g>
   <g id="matplotlib.axis_2">
    <g id="ytick_1">
     <g id="line2d_8">
      <defs>
       <path d="M 0 0 
L -3.5 0 
" id="m904d59e6e2" style="stroke:#000000;stroke-width:0.8;"/>
      </defs>
      <g>
       <use style="stroke:#000000;stroke-width:0.8;" x="90" xlink:href="#m904d59e6e2" y="176.039791"/>
      </g>
     </g>
     <g id="text_1">
      <!-- 15 -->
      <g style="fill:#ff0000;" transform="translate(70.275 179.839009)scale(0.1 -0.1)">
       <defs>
        <path d="M 12.40625 8.296875 
L 28.515625 8.296875 
L 28.515625 63.921875 
L 10.984375 60.40625 
L 10.984375 69.390625 
L 28.421875 72.90625 
L 38.28125 72.90625 
L 38.28125 8.296875 
L 54.390625 8.296875 
L 54.390625 0 
L 12.40625 0 
z
" id="DejaVuSans-49"/>
        <path d="M 10.796875 72.90625 
L 49.515625 72.90625 
L 49.515625 64.59375 
L 19.828125 64.59375 
L 19.828125 46.734375 
Q 21.96875 47.46875 24.109375 47.828125 
Q 26.265625 48.1875 28.421875 48.1875 
Q 40.625 48.1875 47.75 41.5 
Q 54.890625 34.8125 54.890625 23.390625 
Q 54.890625 11.625 47.5625 5.09375 
Q 40.234375 -1.421875 26.90625 -1.421875 
Q 22.3125 -1.421875 17.546875 -0.640625 
Q 12.796875 0.140625 7.71875 1.703125 
L 7.71875 11.625 
Q 12.109375 9.234375 16.796875 8.0625 
Q 21.484375 6.890625 26.703125 6.890625 
Q 35.15625 6.890625 40.078125 11.328125 
Q 45.015625 15.765625 45.015625 23.390625 
Q 45.015625 31 40.078125 35.4375 
Q 35.15625 39.890625 26.703125 39.890625 
Q 22.75 39.890625 18.8125 39.015625 
Q 14.890625 38.140625 10.796875 36.28125 
z
" id="DejaVuSans-53"/>
       </defs>
       <use xlink:href="#DejaVuSans-49"/>
       <use x="63.623047" xlink:href="#DejaVuSans-53"/>
      </g>
     </g>
    </g>
    <g id="ytick_2">
     <g id="line2d_9">
      <g>
       <use style="stroke:#000000;stroke-width:0.8;" x="90" xlink:href="#m904d59e6e2" y="142.690183"/>
      </g>
     </g>
     <g id="text_2">
      <!-- 20 -->
      <g style="fill:#ff0000;" transform="translate(70.275 146.489402)scale(0.1 -0.1)">
       <defs>
        <path d="M 19.1875 8.296875 
L 53.609375 8.296875 
L 53.609375 0 
L 7.328125 0 
L 7.328125 8.296875 
Q 12.9375 14.109375 22.625 23.890625 
Q 32.328125 33.6875 34.8125 36.53125 
Q 39.546875 41.84375 41.421875 45.53125 
Q 43.3125 49.21875 43.3125 52.78125 
Q 43.3125 58.59375 39.234375 62.25 
Q 35.15625 65.921875 28.609375 65.921875 
Q 23.96875 65.921875 18.8125 64.3125 
Q 13.671875 62.703125 7.8125 59.421875 
L 7.8125 69.390625 
Q 13.765625 71.78125 18.9375 73 
Q 24.125 74.21875 28.421875 74.21875 
Q 39.75 74.21875 46.484375 68.546875 
Q 53.21875 62.890625 53.21875 53.421875 
Q 53.21875 48.921875 51.53125 44.890625 
Q 49.859375 40.875 45.40625 35.40625 
Q 44.1875 33.984375 37.640625 27.21875 
Q 31.109375 20.453125 19.1875 8.296875 
z
" id="DejaVuSans-50"/>
        <path d="M 31.78125 66.40625 
Q 24.171875 66.40625 20.328125 58.90625 
Q 16.5 51.421875 16.5 36.375 
Q 16.5 21.390625 20.328125 13.890625 
Q 24.171875 6.390625 31.78125 6.390625 
Q 39.453125 6.390625 43.28125 13.890625 
Q 47.125 21.390625 47.125 36.375 
Q 47.125 51.421875 43.28125 58.90625 
Q 39.453125 66.40625 31.78125 66.40625 
z
M 31.78125 74.21875 
Q 44.046875 74.21875 50.515625 64.515625 
Q 56.984375 54.828125 56.984375 36.375 
Q 56.984375 17.96875 50.515625 8.265625 
Q 44.046875 -1.421875 31.78125 -1.421875 
Q 19.53125 -1.421875 13.0625 8.265625 
Q 6.59375 17.96875 6.59375 36.375 
Q 6.59375 54.828125 13.0625 64.515625 
Q 19.53125 74.21875 31.78125 74.21875 
z
" id="DejaVuSans-48"/>
       </defs>
       <use xlink:href="#DejaVuSans-50"/>
       <use x="63.623047" xlink:href="#DejaVuSans-48"/>
      </g>
     </g>
    </g>
    <g id="ytick_3">
     <g id="line2d_10">
      <g>
       <use style="stroke:#000000;stroke-width:0.8;" x="90" xlink:href="#m904d59e6e2" y="109.340575"/>
      </g>
     </g>
     <g id="text_3">
      <!-- 25 -->
      <g style="fill:#ff0000;" transform="translate(70.275 113.139794)scale(0.1 -0.1)">
       <use xlink:href="#DejaVuSans-50"/>
       <use x="63.623047" xlink:href="#DejaVuSans-53"/>
      </g>
     </g>
    </g>
    <g id="ytick_4">
     <g id="line2d_11">
      <g>
       <use style="stroke:#000000;stroke-width:0.8;" x="90" xlink:href="#m904d59e6e2" y="75.990967"/>
      </g>
     </g>
     <g id="text_4">
      <!-- 30 -->
      <g style="fill:#ff0000;" transform="translate(70.275 79.790186)scale(0.1 -0.1)">
       <defs>
        <path d="M 40.578125 39.3125 
Q 47.65625 37.796875 51.625 33 
Q 55.609375 28.21875 55.609375 21.1875 
Q 55.609375 10.40625 48.1875 4.484375 
Q 40.765625 -1.421875 27.09375 -1.421875 
Q 22.515625 -1.421875 17.65625 -0.515625 
Q 12.796875 0.390625 7.625 2.203125 
L 7.625 11.71875 
Q 11.71875 9.328125 16.59375 8.109375 
Q 21.484375 6.890625 26.8125 6.890625 
Q 36.078125 6.890625 40.9375 10.546875 
Q 45.796875 14.203125 45.796875 21.1875 
Q 45.796875 27.640625 41.28125 31.265625 
Q 36.765625 34.90625 28.71875 34.90625 
L 20.21875 34.90625 
L 20.21875 43.015625 
L 29.109375 43.015625 
Q 36.375 43.015625 40.234375 45.921875 
Q 44.09375 48.828125 44.09375 54.296875 
Q 44.09375 59.90625 40.109375 62.90625 
Q 36.140625 65.921875 28.71875 65.921875 
Q 24.65625 65.921875 20.015625 65.03125 
Q 15.375 64.15625 9.8125 62.3125 
L 9.8125 71.09375 
Q 15.4375 72.65625 20.34375 73.4375 
Q 25.25 74.21875 29.59375 74.21875 
Q 40.828125 74.21875 47.359375 69.109375 
Q 53.90625 64.015625 53.90625 55.328125 
Q 53.90625 49.265625 50.4375 45.09375 
Q 46.96875 40.921875 40.578125 39.3125 
z
" id="DejaVuSans-51"/>
       </defs>
       <use xlink:href="#DejaVuSans-51"/>
       <use x="63.623047" xlink:href="#DejaVuSans-48"/>
      </g>
     </g>
    </g>
    <g id="text_5">
     <!-- T [$C$] -->
     <g style="fill:#ff0000;" transform="translate(64.195312 138.017273)rotate(-90)scale(0.1 -0.1)">
      <defs>
       <path d="M -0.296875 72.90625 
L 61.375 72.90625 
L 61.375 64.59375 
L 35.5 64.59375 
L 35.5 0 
L 25.59375 0 
L 25.59375 64.59375 
L -0.296875 64.59375 
z
" id="DejaVuSans-84"/>
       <path id="DejaVuSans-32"/>
       <path d="M 8.59375 75.984375 
L 29.296875 75.984375 
L 29.296875 69 
L 17.578125 69 
L 17.578125 -6.203125 
L 29.296875 -6.203125 
L 29.296875 -13.1875 
L 8.59375 -13.1875 
z
" id="DejaVuSans-91"/>
       <path d="M 69.484375 67.28125 
L 67.484375 56.890625 
Q 62.796875 61.625 57.546875 63.921875 
Q 52.296875 66.21875 46.1875 66.21875 
Q 37.84375 66.21875 31.515625 62.203125 
Q 25.203125 58.203125 20.609375 50 
Q 17.671875 44.734375 16.125 38.84375 
Q 14.59375 32.953125 14.59375 27 
Q 14.59375 17.046875 19.75 11.8125 
Q 24.90625 6.59375 34.71875 6.59375 
Q 41.5 6.59375 47.75 8.765625 
Q 54 10.9375 59.90625 15.28125 
L 57.625 3.609375 
Q 51.8125 1.125 45.875 -0.140625 
Q 39.9375 -1.421875 33.984375 -1.421875 
Q 19.96875 -1.421875 12.078125 6.1875 
Q 4.203125 13.8125 4.203125 27.390625 
Q 4.203125 36.078125 7.203125 44.46875 
Q 10.203125 52.875 15.828125 59.8125 
Q 21.78125 67.1875 29.421875 70.703125 
Q 37.0625 74.21875 47.21875 74.21875 
Q 53.46875 74.21875 59.0625 72.484375 
Q 64.65625 70.75 69.484375 67.28125 
z
" id="DejaVuSans-Oblique-67"/>
       <path d="M 30.421875 75.984375 
L 30.421875 -13.1875 
L 9.71875 -13.1875 
L 9.71875 -6.203125 
L 21.390625 -6.203125 
L 21.390625 69 
L 9.71875 69 
L 9.71875 75.984375 
z
" id="DejaVuSans-93"/>
      </defs>
      <use transform="translate(0 0.015625)" xlink:href="#DejaVuSans-84"/>
      <use transform="translate(61.083984 0.015625)" xlink:href="#DejaVuSans-32"/>
      <use transform="translate(92.871094 0.015625)" xlink:href="#DejaVuSans-91"/>
      <use transform="translate(131.884766 0.015625)" xlink:href="#DejaVuSans-Oblique-67"/>
      <use transform="translate(201.708984 0.015625)" xlink:href="#DejaVuSans-93"/>
     </g>
    </g>
   </g>
   <g id="line2d_12">
    <path clip-path="url(#p6bb363e156)" d="M 90 187.712153 
L 101.387887 185.71246 
L 112.775774 178.163826 
L 124.163661 157.248732 
L 135.551548 149.833454 
L 146.939435 126.841837 
L 158.327321 129.83939 
L 169.715208 138.506485 
L 181.103095 157.253802 
L 192.490982 187.944186 
L 203.878869 193.333332 
L 215.266756 191.239579 
L 226.654643 171.502013 
L 238.04253 133.447761 
L 249.430417 105.990929 
L 260.818304 89.956005 
L 272.20619 84.858775 
L 283.594077 96.640602 
L 294.981964 140.232742 
L 306.369851 142.816941 
L 317.757738 152.902707 
L 329.145625 155.356701 
L 340.533512 143.4071 
L 351.921399 117.737566 
L 363.309286 84.740298 
L 374.697173 59.956419 
L 386.08506 58.578843 
L 397.472946 78.801259 
L 408.860833 111.15246 
L 420.24872 121.186834 
L 431.636607 133.473162 
L 443.024494 143.331582 
L 454.412381 120.58015 
L 465.800268 104.47975 
L 477.188155 88.062324 
L 488.576042 116.667951 
L 499.963929 133.944927 
L 511.351815 144.590795 
L 522.739702 155.866386 
L 534.127589 162.032226 
L 545.515476 160.47104 
L 556.903363 163.444101 
L 568.29125 146.701907 
L 579.679137 131.48396 
L 591.067024 117.084198 
L 602.454911 111.537263 
L 613.842798 114.656266 
L 625.230685 139.273065 
L 636.618571 151.511385 
L 648.006458 161.703098 
" style="fill:none;stroke:#ff0000;stroke-linecap:square;stroke-width:1.5;"/>
   </g>
   <g id="line2d_13">
    <path clip-path="url(#p6bb363e156)" d="M 90 187.718051 
L 101.387887 185.712525 
L 112.775774 178.123782 
L 124.163661 157.192968 
L 135.551548 155.017922 
L 146.939435 138.355201 
L 158.327321 142.674146 
L 169.715208 145.980083 
L 181.103095 157.42511 
L 192.490982 188.021085 
L 203.878869 193.355702 
L 215.266756 191.316132 
L 226.654643 171.348042 
L 238.04253 133.302585 
L 249.430417 112.622302 
L 260.818304 102.721817 
L 272.20619 97.420984 
L 283.594077 102.621986 
L 294.981964 140.210141 
L 306.369851 142.879586 
L 317.757738 152.929967 
L 329.145625 155.315649 
L 340.533512 143.32444 
L 351.921399 117.965428 
L 363.309286 93.315043 
L 374.697173 73.271418 
L 386.08506 70.384683 
L 397.472946 83.060762 
L 408.860833 111.301361 
L 420.24872 121.257263 
L 431.636607 133.531709 
L 443.024494 143.379853 
L 454.412381 120.587584 
L 465.800268 106.294005 
L 477.188155 97.850131 
L 488.576042 129.681362 
L 499.963929 144.471901 
L 511.351815 146.956774 
L 522.739702 155.903 
L 534.127589 162.05507 
L 545.515476 160.455017 
L 556.903363 163.366242 
L 568.29125 146.633665 
L 579.679137 135.01589 
L 591.067024 127.666242 
L 602.454911 125.013122 
L 613.842798 124.111699 
L 625.230685 140.246678 
L 636.618571 151.365713 
L 648.006458 161.704171 
" style="fill:none;stroke:#ff0000;stroke-dasharray:5.55,2.4;stroke-dashoffset:0;stroke-width:1.5;"/>
   </g>
   <g id="patch_3">
    <path d="M 90 200.094545 
L 90 51.84 
" style="fill:none;stroke:#000000;stroke-linecap:square;stroke-linejoin:miter;stroke-width:0.8;"/>
   </g>
   <g id="patch_4">
    <path d="M 648 200.094545 
L 648 51.84 
" style="fill:none;stroke:#000000;stroke-linecap:square;stroke-linejoin:miter;stroke-width:0.8;"/>
   </g>
   <g id="patch_5">
    <path d="M 90 200.094545 
L 648 200.094545 
" style="fill:none;stroke:#000000;stroke-linecap:square;stroke-linejoin:miter;stroke-width:0.8;"/>
   </g>
   <g id="patch_6">
    <path d="M 90 51.84 
L 648 51.84 
" style="fill:none;stroke:#000000;stroke-linecap:square;stroke-linejoin:miter;stroke-width:0.8;"/>
   </g>
   <g id="legend_1">
    <g id="patch_7">
     <path d="M 97 89.19625 
L 157.4 89.19625 
Q 159.4 89.19625 159.4 87.19625 
L 159.4 58.84 
Q 159.4 56.84 157.4 56.84 
L 97 56.84 
Q 95 56.84 95 58.84 
L 95 87.19625 
Q 95 89.19625 97 89.19625 
z
" style="fill:#ffffff;opacity:0.8;stroke:#cccccc;stroke-linejoin:miter;"/>
    </g>
    <g id="line2d_14">
     <path d="M 99 64.938437 
L 119 64.938437 
" style="fill:none;stroke:#ff0000;stroke-linecap:square;stroke-width:1.5;"/>
    </g>
    <g id="line2d_15"/>
    <g id="text_6">
     <!-- $T_{vessel}$ -->
     <g transform="translate(127 68.438437)scale(0.1 -0.1)">
      <defs>
       <path d="M 5.90625 72.90625 
L 67.578125 72.90625 
L 66.015625 64.59375 
L 39.984375 64.59375 
L 27.484375 0 
L 17.578125 0 
L 30.078125 64.59375 
L 4.296875 64.59375 
z
" id="DejaVuSans-Oblique-84"/>
       <path d="M 7.171875 54.6875 
L 16.703125 54.6875 
L 24.703125 8.203125 
L 50.875 54.6875 
L 60.40625 54.6875 
L 29.296875 0 
L 17.1875 0 
z
" id="DejaVuSans-Oblique-118"/>
       <path d="M 48.09375 32.234375 
Q 48.25 33.015625 48.3125 33.84375 
Q 48.390625 34.671875 48.390625 35.5 
Q 48.390625 41.453125 44.890625 44.921875 
Q 41.40625 48.390625 35.40625 48.390625 
Q 28.71875 48.390625 23.578125 44.15625 
Q 18.453125 39.9375 15.828125 32.171875 
z
M 55.90625 25.203125 
L 14.109375 25.203125 
Q 13.8125 23.34375 13.71875 22.265625 
Q 13.625 21.1875 13.625 20.40625 
Q 13.625 13.625 17.796875 9.90625 
Q 21.96875 6.203125 29.59375 6.203125 
Q 35.453125 6.203125 40.671875 7.515625 
Q 45.90625 8.84375 50.390625 11.375 
L 48.6875 2.484375 
Q 43.84375 0.53125 38.6875 -0.4375 
Q 33.546875 -1.421875 28.21875 -1.421875 
Q 16.84375 -1.421875 10.71875 4.015625 
Q 4.59375 9.46875 4.59375 19.484375 
Q 4.59375 28.03125 7.640625 35.375 
Q 10.6875 42.71875 16.609375 48.484375 
Q 20.40625 52.09375 25.65625 54.046875 
Q 30.90625 56 36.8125 56 
Q 46.09375 56 51.578125 50.4375 
Q 57.078125 44.875 57.078125 35.5 
Q 57.078125 33.25 56.78125 30.6875 
Q 56.5 28.125 55.90625 25.203125 
z
" id="DejaVuSans-Oblique-101"/>
       <path d="M 50 53.078125 
L 48.296875 44.578125 
Q 44.734375 46.53125 40.765625 47.5 
Q 36.8125 48.484375 32.625 48.484375 
Q 25.53125 48.484375 21.453125 46.0625 
Q 17.390625 43.65625 17.390625 39.5 
Q 17.390625 34.671875 26.859375 32.078125 
Q 27.59375 31.890625 27.9375 31.78125 
L 30.8125 30.90625 
Q 39.796875 28.421875 42.796875 25.6875 
Q 45.796875 22.953125 45.796875 18.21875 
Q 45.796875 9.515625 38.890625 4.046875 
Q 31.984375 -1.421875 20.796875 -1.421875 
Q 16.453125 -1.421875 11.671875 -0.578125 
Q 6.890625 0.25 1.125 2 
L 2.875 11.28125 
Q 7.8125 8.734375 12.59375 7.421875 
Q 17.390625 6.109375 21.78125 6.109375 
Q 28.375 6.109375 32.5 8.9375 
Q 36.625 11.765625 36.625 16.109375 
Q 36.625 20.796875 25.78125 23.6875 
L 24.859375 23.921875 
L 21.78125 24.703125 
Q 14.9375 26.515625 11.765625 29.46875 
Q 8.59375 32.421875 8.59375 37.015625 
Q 8.59375 45.75 15.15625 50.875 
Q 21.734375 56 33.015625 56 
Q 37.453125 56 41.671875 55.265625 
Q 45.90625 54.546875 50 53.078125 
z
" id="DejaVuSans-Oblique-115"/>
       <path d="M 18.3125 75.984375 
L 27.296875 75.984375 
L 12.5 0 
L 3.515625 0 
z
" id="DejaVuSans-Oblique-108"/>
      </defs>
      <use transform="translate(0 0.09375)" xlink:href="#DejaVuSans-Oblique-84"/>
      <use transform="translate(61.083984 -16.3125)scale(0.7)" xlink:href="#DejaVuSans-Oblique-118"/>
      <use transform="translate(102.509766 -16.3125)scale(0.7)" xlink:href="#DejaVuSans-Oblique-101"/>
      <use transform="translate(145.576172 -16.3125)scale(0.7)" xlink:href="#DejaVuSans-Oblique-115"/>
      <use transform="translate(182.045898 -16.3125)scale(0.7)" xlink:href="#DejaVuSans-Oblique-115"/>
      <use transform="translate(218.515625 -16.3125)scale(0.7)" xlink:href="#DejaVuSans-Oblique-101"/>
      <use transform="translate(261.582031 -16.3125)scale(0.7)" xlink:href="#DejaVuSans-Oblique-108"/>
     </g>
    </g>
    <g id="line2d_16">
     <path d="M 99 79.616562 
L 119 79.616562 
" style="fill:none;stroke:#ff0000;stroke-dasharray:5.55,2.4;stroke-dashoffset:0;stroke-width:1.5;"/>
    </g>
    <g id="line2d_17"/>
    <g id="text_7">
     <!-- $T_{amb}$ -->
     <g transform="translate(127 83.116562)scale(0.1 -0.1)">
      <defs>
       <path d="M 53.71875 31.203125 
L 47.609375 0 
L 38.625 0 
L 40.28125 8.296875 
Q 36.328125 3.421875 31.265625 1 
Q 26.21875 -1.421875 20.015625 -1.421875 
Q 13.03125 -1.421875 8.5625 2.84375 
Q 4.109375 7.125 4.109375 13.8125 
Q 4.109375 23.390625 11.75 28.953125 
Q 19.390625 34.515625 32.8125 34.515625 
L 45.3125 34.515625 
L 45.796875 36.921875 
Q 45.90625 37.3125 45.953125 37.765625 
Q 46 38.234375 46 39.203125 
Q 46 43.5625 42.453125 45.96875 
Q 38.921875 48.390625 32.515625 48.390625 
Q 28.125 48.390625 23.5 47.265625 
Q 18.890625 46.140625 14.015625 43.890625 
L 15.578125 52.203125 
Q 20.65625 54.109375 25.515625 55.046875 
Q 30.375 56 34.90625 56 
Q 44.578125 56 49.625 51.796875 
Q 54.6875 47.609375 54.6875 39.59375 
Q 54.6875 37.984375 54.4375 35.8125 
Q 54.203125 33.640625 53.71875 31.203125 
z
M 44 27.484375 
L 35.015625 27.484375 
Q 23.96875 27.484375 18.671875 24.53125 
Q 13.375 21.578125 13.375 15.375 
Q 13.375 11.078125 16.078125 8.640625 
Q 18.796875 6.203125 23.578125 6.203125 
Q 30.90625 6.203125 36.375 11.453125 
Q 41.84375 16.703125 43.609375 25.484375 
z
" id="DejaVuSans-Oblique-97"/>
       <path d="M 89.796875 33.015625 
L 83.40625 0 
L 74.421875 0 
L 80.71875 32.71875 
Q 81.109375 34.8125 81.296875 36.328125 
Q 81.5 37.84375 81.5 38.921875 
Q 81.5 43.3125 79.046875 45.75 
Q 76.609375 48.1875 72.21875 48.1875 
Q 65.671875 48.1875 60.546875 43.28125 
Q 55.421875 38.375 53.90625 30.515625 
L 47.90625 0 
L 38.921875 0 
L 45.3125 32.71875 
Q 45.703125 34.515625 45.890625 36.046875 
Q 46.09375 37.59375 46.09375 38.8125 
Q 46.09375 43.265625 43.65625 45.71875 
Q 41.21875 48.1875 36.921875 48.1875 
Q 30.28125 48.1875 25.140625 43.28125 
Q 20.015625 38.375 18.5 30.515625 
L 12.5 0 
L 3.515625 0 
L 14.203125 54.6875 
L 23.1875 54.6875 
L 21.484375 46.1875 
Q 25.140625 50.984375 30.046875 53.484375 
Q 34.96875 56 40.578125 56 
Q 46.53125 56 50.359375 52.875 
Q 54.203125 49.75 54.984375 44.1875 
Q 59.078125 49.953125 64.46875 52.96875 
Q 69.875 56 75.875 56 
Q 82.90625 56 86.734375 51.953125 
Q 90.578125 47.90625 90.578125 40.484375 
Q 90.578125 38.875 90.375 36.9375 
Q 90.1875 35.015625 89.796875 33.015625 
z
" id="DejaVuSans-Oblique-109"/>
       <path d="M 49.515625 33.40625 
Q 49.515625 40.484375 46.265625 44.484375 
Q 43.015625 48.484375 37.3125 48.484375 
Q 33.15625 48.484375 29.515625 46.453125 
Q 25.875 44.4375 23.1875 40.578125 
Q 20.359375 36.53125 18.71875 31.171875 
Q 17.09375 25.828125 17.09375 20.515625 
Q 17.09375 13.765625 20.28125 9.9375 
Q 23.484375 6.109375 29.109375 6.109375 
Q 33.34375 6.109375 36.953125 8.078125 
Q 40.578125 10.0625 43.3125 13.921875 
Q 46.09375 17.921875 47.796875 23.234375 
Q 49.515625 28.5625 49.515625 33.40625 
z
M 21.578125 46.390625 
Q 24.90625 50.875 29.90625 53.4375 
Q 34.90625 56 40.375 56 
Q 48.78125 56 53.734375 50.328125 
Q 58.6875 44.671875 58.6875 35.015625 
Q 58.6875 27.09375 55.78125 19.671875 
Q 52.875 12.25 47.515625 6.5 
Q 44 2.6875 39.40625 0.625 
Q 34.8125 -1.421875 29.78125 -1.421875 
Q 24.46875 -1.421875 20.5625 1.015625 
Q 16.65625 3.46875 14.203125 8.296875 
L 12.59375 0 
L 3.609375 0 
L 18.40625 75.984375 
L 27.390625 75.984375 
z
" id="DejaVuSans-Oblique-98"/>
      </defs>
      <use transform="translate(0 0.09375)" xlink:href="#DejaVuSans-Oblique-84"/>
      <use transform="translate(61.083984 -16.3125)scale(0.7)" xlink:href="#DejaVuSans-Oblique-97"/>
      <use transform="translate(103.979492 -16.3125)scale(0.7)" xlink:href="#DejaVuSans-Oblique-109"/>
      <use transform="translate(172.167969 -16.3125)scale(0.7)" xlink:href="#DejaVuSans-Oblique-98"/>
     </g>
    </g>
   </g>
  </g>
  <g id="axes_2">
   <g id="patch_8">
    <path d="M 90 378 
L 648 378 
L 648 229.745455 
L 90 229.745455 
z
" style="fill:#ffffff;"/>
   </g>
   <g id="matplotlib.axis_3">
    <g id="xtick_8">
     <g id="line2d_18">
      <g>
       <use style="stroke:#000000;stroke-width:0.8;" x="90" xlink:href="#m28432dc30d" y="378"/>
      </g>
     </g>
     <g id="text_8">
      <!-- 0 -->
      <g transform="translate(86.81875 392.598437)scale(0.1 -0.1)">
       <use xlink:href="#DejaVuSans-48"/>
      </g>
     </g>
    </g>
    <g id="xtick_9">
     <g id="line2d_19">
      <g>
       <use style="stroke:#000000;stroke-width:0.8;" x="183" xlink:href="#m28432dc30d" y="378"/>
      </g>
     </g>
     <g id="text_9">
      <!-- 20 -->
      <g transform="translate(176.6375 392.598437)scale(0.1 -0.1)">
       <use xlink:href="#DejaVuSans-50"/>
       <use x="63.623047" xlink:href="#DejaVuSans-48"/>
      </g>
     </g>
    </g>
    <g id="xtick_10">
     <g id="line2d_20">
      <g>
       <use style="stroke:#000000;stroke-width:0.8;" x="276" xlink:href="#m28432dc30d" y="378"/>
      </g>
     </g>
     <g id="text_10">
      <!-- 40 -->
      <g transform="translate(269.6375 392.598437)scale(0.1 -0.1)">
       <defs>
        <path d="M 37.796875 64.3125 
L 12.890625 25.390625 
L 37.796875 25.390625 
z
M 35.203125 72.90625 
L 47.609375 72.90625 
L 47.609375 25.390625 
L 58.015625 25.390625 
L 58.015625 17.1875 
L 47.609375 17.1875 
L 47.609375 0 
L 37.796875 0 
L 37.796875 17.1875 
L 4.890625 17.1875 
L 4.890625 26.703125 
z
" id="DejaVuSans-52"/>
       </defs>
       <use xlink:href="#DejaVuSans-52"/>
       <use x="63.623047" xlink:href="#DejaVuSans-48"/>
      </g>
     </g>
    </g>
    <g id="xtick_11">
     <g id="line2d_21">
      <g>
       <use style="stroke:#000000;stroke-width:0.8;" x="369" xlink:href="#m28432dc30d" y="378"/>
      </g>
     </g>
     <g id="text_11">
      <!-- 60 -->
      <g transform="translate(362.6375 392.598437)scale(0.1 -0.1)">
       <defs>
        <path d="M 33.015625 40.375 
Q 26.375 40.375 22.484375 35.828125 
Q 18.609375 31.296875 18.609375 23.390625 
Q 18.609375 15.53125 22.484375 10.953125 
Q 26.375 6.390625 33.015625 6.390625 
Q 39.65625 6.390625 43.53125 10.953125 
Q 47.40625 15.53125 47.40625 23.390625 
Q 47.40625 31.296875 43.53125 35.828125 
Q 39.65625 40.375 33.015625 40.375 
z
M 52.59375 71.296875 
L 52.59375 62.3125 
Q 48.875 64.0625 45.09375 64.984375 
Q 41.3125 65.921875 37.59375 65.921875 
Q 27.828125 65.921875 22.671875 59.328125 
Q 17.53125 52.734375 16.796875 39.40625 
Q 19.671875 43.65625 24.015625 45.921875 
Q 28.375 48.1875 33.59375 48.1875 
Q 44.578125 48.1875 50.953125 41.515625 
Q 57.328125 34.859375 57.328125 23.390625 
Q 57.328125 12.15625 50.6875 5.359375 
Q 44.046875 -1.421875 33.015625 -1.421875 
Q 20.359375 -1.421875 13.671875 8.265625 
Q 6.984375 17.96875 6.984375 36.375 
Q 6.984375 53.65625 15.1875 63.9375 
Q 23.390625 74.21875 37.203125 74.21875 
Q 40.921875 74.21875 44.703125 73.484375 
Q 48.484375 72.75 52.59375 71.296875 
z
" id="DejaVuSans-54"/>
       </defs>
       <use xlink:href="#DejaVuSans-54"/>
       <use x="63.623047" xlink:href="#DejaVuSans-48"/>
      </g>
     </g>
    </g>
    <g id="xtick_12">
     <g id="line2d_22">
      <g>
       <use style="stroke:#000000;stroke-width:0.8;" x="462" xlink:href="#m28432dc30d" y="378"/>
      </g>
     </g>
     <g id="text_12">
      <!-- 80 -->
      <g transform="translate(455.6375 392.598437)scale(0.1 -0.1)">
       <defs>
        <path d="M 31.78125 34.625 
Q 24.75 34.625 20.71875 30.859375 
Q 16.703125 27.09375 16.703125 20.515625 
Q 16.703125 13.921875 20.71875 10.15625 
Q 24.75 6.390625 31.78125 6.390625 
Q 38.8125 6.390625 42.859375 10.171875 
Q 46.921875 13.96875 46.921875 20.515625 
Q 46.921875 27.09375 42.890625 30.859375 
Q 38.875 34.625 31.78125 34.625 
z
M 21.921875 38.8125 
Q 15.578125 40.375 12.03125 44.71875 
Q 8.5 49.078125 8.5 55.328125 
Q 8.5 64.0625 14.71875 69.140625 
Q 20.953125 74.21875 31.78125 74.21875 
Q 42.671875 74.21875 48.875 69.140625 
Q 55.078125 64.0625 55.078125 55.328125 
Q 55.078125 49.078125 51.53125 44.71875 
Q 48 40.375 41.703125 38.8125 
Q 48.828125 37.15625 52.796875 32.3125 
Q 56.78125 27.484375 56.78125 20.515625 
Q 56.78125 9.90625 50.3125 4.234375 
Q 43.84375 -1.421875 31.78125 -1.421875 
Q 19.734375 -1.421875 13.25 4.234375 
Q 6.78125 9.90625 6.78125 20.515625 
Q 6.78125 27.484375 10.78125 32.3125 
Q 14.796875 37.15625 21.921875 38.8125 
z
M 18.3125 54.390625 
Q 18.3125 48.734375 21.84375 45.5625 
Q 25.390625 42.390625 31.78125 42.390625 
Q 38.140625 42.390625 41.71875 45.5625 
Q 45.3125 48.734375 45.3125 54.390625 
Q 45.3125 60.0625 41.71875 63.234375 
Q 38.140625 66.40625 31.78125 66.40625 
Q 25.390625 66.40625 21.84375 63.234375 
Q 18.3125 60.0625 18.3125 54.390625 
z
" id="DejaVuSans-56"/>
       </defs>
       <use xlink:href="#DejaVuSans-56"/>
       <use x="63.623047" xlink:href="#DejaVuSans-48"/>
      </g>
     </g>
    </g>
    <g id="xtick_13">
     <g id="line2d_23">
      <g>
       <use style="stroke:#000000;stroke-width:0.8;" x="555" xlink:href="#m28432dc30d" y="378"/>
      </g>
     </g>
     <g id="text_13">
      <!-- 100 -->
      <g transform="translate(545.45625 392.598437)scale(0.1 -0.1)">
       <use xlink:href="#DejaVuSans-49"/>
       <use x="63.623047" xlink:href="#DejaVuSans-48"/>
       <use x="127.246094" xlink:href="#DejaVuSans-48"/>
      </g>
     </g>
    </g>
    <g id="xtick_14">
     <g id="line2d_24">
      <g>
       <use style="stroke:#000000;stroke-width:0.8;" x="648" xlink:href="#m28432dc30d" y="378"/>
      </g>
     </g>
     <g id="text_14">
      <!-- 120 -->
      <g transform="translate(638.45625 392.598437)scale(0.1 -0.1)">
       <use xlink:href="#DejaVuSans-49"/>
       <use x="63.623047" xlink:href="#DejaVuSans-50"/>
       <use x="127.246094" xlink:href="#DejaVuSans-48"/>
      </g>
     </g>
    </g>
   </g>
   <g id="matplotlib.axis_4">
    <g id="ytick_5">
     <g id="line2d_25">
      <g>
       <use style="stroke:#000000;stroke-width:0.8;" x="90" xlink:href="#m904d59e6e2" y="363.960168"/>
      </g>
     </g>
     <g id="text_15">
      <!-- 101.5 -->
      <g style="fill:#008000;" transform="translate(54.371875 367.759387)scale(0.1 -0.1)">
       <defs>
        <path d="M 10.6875 12.40625 
L 21 12.40625 
L 21 0 
L 10.6875 0 
z
" id="DejaVuSans-46"/>
       </defs>
       <use xlink:href="#DejaVuSans-49"/>
       <use x="63.623047" xlink:href="#DejaVuSans-48"/>
       <use x="127.246094" xlink:href="#DejaVuSans-49"/>
       <use x="190.869141" xlink:href="#DejaVuSans-46"/>
       <use x="222.65625" xlink:href="#DejaVuSans-53"/>
      </g>
     </g>
    </g>
    <g id="ytick_6">
     <g id="line2d_26">
      <g>
       <use style="stroke:#000000;stroke-width:0.8;" x="90" xlink:href="#m904d59e6e2" y="339.982634"/>
      </g>
     </g>
     <g id="text_16">
      <!-- 102.0 -->
      <g style="fill:#008000;" transform="translate(54.371875 343.781853)scale(0.1 -0.1)">
       <use xlink:href="#DejaVuSans-49"/>
       <use x="63.623047" xlink:href="#DejaVuSans-48"/>
       <use x="127.246094" xlink:href="#DejaVuSans-50"/>
       <use x="190.869141" xlink:href="#DejaVuSans-46"/>
       <use x="222.65625" xlink:href="#DejaVuSans-48"/>
      </g>
     </g>
    </g>
    <g id="ytick_7">
     <g id="line2d_27">
      <g>
       <use style="stroke:#000000;stroke-width:0.8;" x="90" xlink:href="#m904d59e6e2" y="316.0051"/>
      </g>
     </g>
     <g id="text_17">
      <!-- 102.5 -->
      <g style="fill:#008000;" transform="translate(54.371875 319.804319)scale(0.1 -0.1)">
       <use xlink:href="#DejaVuSans-49"/>
       <use x="63.623047" xlink:href="#DejaVuSans-48"/>
       <use x="127.246094" xlink:href="#DejaVuSans-50"/>
       <use x="190.869141" xlink:href="#DejaVuSans-46"/>
       <use x="222.65625" xlink:href="#DejaVuSans-53"/>
      </g>
     </g>
    </g>
    <g id="ytick_8">
     <g id="line2d_28">
      <g>
       <use style="stroke:#000000;stroke-width:0.8;" x="90" xlink:href="#m904d59e6e2" y="292.027566"/>
      </g>
     </g>
     <g id="text_18">
      <!-- 103.0 -->
      <g style="fill:#008000;" transform="translate(54.371875 295.826785)scale(0.1 -0.1)">
       <use xlink:href="#DejaVuSans-49"/>
       <use x="63.623047" xlink:href="#DejaVuSans-48"/>
       <use x="127.246094" xlink:href="#DejaVuSans-51"/>
       <use x="190.869141" xlink:href="#DejaVuSans-46"/>
       <use x="222.65625" xlink:href="#DejaVuSans-48"/>
      </g>
     </g>
    </g>
    <g id="ytick_9">
     <g id="line2d_29">
      <g>
       <use style="stroke:#000000;stroke-width:0.8;" x="90" xlink:href="#m904d59e6e2" y="268.050033"/>
      </g>
     </g>
     <g id="text_19">
      <!-- 103.5 -->
      <g style="fill:#008000;" transform="translate(54.371875 271.849251)scale(0.1 -0.1)">
       <use xlink:href="#DejaVuSans-49"/>
       <use x="63.623047" xlink:href="#DejaVuSans-48"/>
       <use x="127.246094" xlink:href="#DejaVuSans-51"/>
       <use x="190.869141" xlink:href="#DejaVuSans-46"/>
       <use x="222.65625" xlink:href="#DejaVuSans-53"/>
      </g>
     </g>
    </g>
    <g id="ytick_10">
     <g id="line2d_30">
      <g>
       <use style="stroke:#000000;stroke-width:0.8;" x="90" xlink:href="#m904d59e6e2" y="244.072499"/>
      </g>
     </g>
     <g id="text_20">
      <!-- 104.0 -->
      <g style="fill:#008000;" transform="translate(54.371875 247.871718)scale(0.1 -0.1)">
       <use xlink:href="#DejaVuSans-49"/>
       <use x="63.623047" xlink:href="#DejaVuSans-48"/>
       <use x="127.246094" xlink:href="#DejaVuSans-52"/>
       <use x="190.869141" xlink:href="#DejaVuSans-46"/>
       <use x="222.65625" xlink:href="#DejaVuSans-48"/>
      </g>
     </g>
    </g>
    <g id="text_21">
     <!-- P [$kPa$] -->
     <g style="fill:#008000;" transform="translate(48.292187 321.372727)rotate(-90)scale(0.1 -0.1)">
      <defs>
       <path d="M 19.671875 64.796875 
L 19.671875 37.40625 
L 32.078125 37.40625 
Q 38.96875 37.40625 42.71875 40.96875 
Q 46.484375 44.53125 46.484375 51.125 
Q 46.484375 57.671875 42.71875 61.234375 
Q 38.96875 64.796875 32.078125 64.796875 
z
M 9.8125 72.90625 
L 32.078125 72.90625 
Q 44.34375 72.90625 50.609375 67.359375 
Q 56.890625 61.8125 56.890625 51.125 
Q 56.890625 40.328125 50.609375 34.8125 
Q 44.34375 29.296875 32.078125 29.296875 
L 19.671875 29.296875 
L 19.671875 0 
L 9.8125 0 
z
" id="DejaVuSans-80"/>
       <path d="M 18.3125 75.984375 
L 27.296875 75.984375 
L 18.703125 31.6875 
L 49.515625 54.6875 
L 61.1875 54.6875 
L 26.8125 28.515625 
L 51.90625 0 
L 41.015625 0 
L 17.671875 26.703125 
L 12.5 0 
L 3.515625 0 
z
" id="DejaVuSans-Oblique-107"/>
       <path d="M 16.890625 72.90625 
L 39.703125 72.90625 
Q 49.65625 72.90625 54.875 68.265625 
Q 60.109375 63.625 60.109375 54.6875 
Q 60.109375 42.671875 52.390625 35.984375 
Q 44.671875 29.296875 30.71875 29.296875 
L 18.3125 29.296875 
L 12.59375 0 
L 2.6875 0 
z
M 25.203125 64.796875 
L 19.921875 37.40625 
L 32.328125 37.40625 
Q 40.71875 37.40625 45.203125 41.703125 
Q 49.703125 46 49.703125 54 
Q 49.703125 59.125 46.65625 61.953125 
Q 43.609375 64.796875 38.09375 64.796875 
z
" id="DejaVuSans-Oblique-80"/>
      </defs>
      <use transform="translate(0 0.015625)" xlink:href="#DejaVuSans-80"/>
      <use transform="translate(60.302734 0.015625)" xlink:href="#DejaVuSans-32"/>
      <use transform="translate(92.089844 0.015625)" xlink:href="#DejaVuSans-91"/>
      <use transform="translate(131.103516 0.015625)" xlink:href="#DejaVuSans-Oblique-107"/>
      <use transform="translate(189.013672 0.015625)" xlink:href="#DejaVuSans-Oblique-80"/>
      <use transform="translate(249.316406 0.015625)" xlink:href="#DejaVuSans-Oblique-97"/>
      <use transform="translate(310.595703 0.015625)" xlink:href="#DejaVuSans-93"/>
     </g>
    </g>
   </g>
   <g id="line2d_31">
    <path clip-path="url(#pc84052a2e9)" d="M 90 366.357921 
L 101.387887 361.265126 
L 112.775774 342.040354 
L 124.163661 288.774041 
L 135.551548 269.8889 
L 146.939435 263.092748 
L 158.327321 270.64817 
L 169.715208 292.493842 
L 181.103095 339.747015 
L 192.490982 358.028428 
L 203.878869 352.586828 
L 215.266756 347.223607 
L 226.654643 296.665146 
L 238.04253 269.22132 
L 249.430417 245.468087 
L 260.818304 251.132546 
L 272.20619 261.546395 
L 283.594077 290.63258 
L 294.981964 360.947899 
L 306.369851 356.998684 
L 317.757738 364.009691 
L 329.145625 361.328522 
L 340.533512 331.371363 
L 351.921399 267.018896 
L 363.309286 281.729656 
L 374.697173 281.99904 
L 386.08506 301.339375 
L 397.472946 350.225217 
L 408.860833 371.261157 
L 420.24872 350.096785 
L 431.636607 366.915483 
L 443.024494 364.885138 
L 454.412381 308.240525 
L 465.800268 268.155096 
L 477.188155 272.320624 
L 488.576042 351.121323 
L 499.963929 355.963434 
L 511.351815 352.585186 
L 522.739702 345.030604 
L 534.127589 351.774631 
L 545.515476 338.719814 
L 556.903363 341.292076 
L 568.29125 298.971216 
L 579.679137 260.50334 
L 591.067024 248.568739 
L 602.454911 257.790385 
L 613.842798 265.599682 
L 625.230685 327.234722 
L 636.618571 342.59584 
L 648.006458 359.133281 
" style="fill:none;stroke:#008000;stroke-linecap:square;stroke-width:1.5;"/>
   </g>
   <g id="line2d_32">
    <path clip-path="url(#pc84052a2e9)" d="M 90 366.357921 
L 101.387887 366.357919 
L 112.775774 364.106885 
L 124.163661 358.665412 
L 135.551548 354.271343 
L 146.939435 350.777278 
L 158.327321 349.426932 
L 169.715208 350.532755 
L 181.103095 347.958391 
L 192.490982 343.819111 
L 203.878869 344.524098 
L 215.266756 345.286899 
L 226.654643 343.926366 
L 238.04253 341.097968 
L 249.430417 340.119835 
L 260.818304 343.085441 
L 272.20619 345.913842 
L 283.594077 349.349469 
L 294.981964 349.015315 
L 306.369851 348.899136 
L 317.757738 351.933059 
L 329.145625 356.287357 
L 340.533512 355.807807 
L 351.921399 356.45311 
L 363.309286 356.7669 
L 374.697173 359.644211 
L 386.08506 359.644209 
L 397.472946 360.964689 
L 408.860833 357.31306 
L 420.24872 353.930321 
L 431.636607 353.889601 
L 443.024494 352.489665 
L 454.412381 350.255678 
L 465.800268 349.70267 
L 477.188155 348.838716 
L 488.576042 344.848075 
L 499.963929 345.507755 
L 511.351815 341.050396 
L 522.739702 337.974849 
L 534.127589 337.862621 
L 545.515476 339.023564 
L 556.903363 336.996005 
L 568.29125 334.431838 
L 579.679137 333.306315 
L 591.067024 332.438851 
L 602.454911 334.621945 
L 613.842798 340.758284 
L 625.230685 345.505554 
L 636.618571 348.185236 
L 648.006458 351.491847 
" style="fill:none;stroke:#008000;stroke-dasharray:5.55,2.4;stroke-dashoffset:0;stroke-width:1.5;"/>
   </g>
   <g id="line2d_33">
    <path clip-path="url(#pc84052a2e9)" d="M 90 270.447786 
L 101.387887 270.497494 
L 112.775774 268.184776 
L 124.163661 262.751293 
L 135.551548 258.369302 
L 146.939435 254.842161 
L 158.327321 253.469201 
L 169.715208 254.63346 
L 181.103095 252.112234 
L 192.490982 247.925957 
L 203.878869 248.608359 
L 215.266756 249.285794 
L 226.654643 247.967737 
L 238.04253 245.210637 
L 249.430417 244.176843 
L 260.818304 247.196901 
L 272.20619 250.022101 
L 283.594077 253.439321 
L 294.981964 253.04633 
L 306.369851 252.928283 
L 317.757738 255.983546 
L 329.145625 260.37055 
L 340.533512 259.923115 
L 351.921399 260.583441 
L 363.309286 260.890139 
L 374.697173 263.734865 
L 386.08506 263.748649 
L 397.472946 265.009583 
L 408.860833 261.404256 
L 420.24872 258.02146 
L 431.636607 258.012685 
L 443.024494 256.564214 
L 454.412381 254.328589 
L 465.800268 253.745654 
L 477.188155 252.922877 
L 488.576042 248.947811 
L 499.963929 249.574688 
L 511.351815 245.221372 
L 522.739702 242.042059 
L 534.127589 241.940979 
L 545.515476 243.023411 
L 556.903363 241.077704 
L 568.29125 238.468927 
L 579.679137 237.380028 
L 591.067024 236.484298 
L 602.454911 238.727475 
L 613.842798 244.872025 
L 625.230685 249.655704 
L 636.618571 252.255649 
L 648.006458 255.566807 
" style="fill:none;stroke:#ffc0cb;stroke-dasharray:9.6,2.4,1.5,2.4;stroke-dashoffset:0;stroke-width:1.5;"/>
   </g>
   <g id="patch_9">
    <path d="M 90 378 
L 90 229.745455 
" style="fill:none;stroke:#000000;stroke-linecap:square;stroke-linejoin:miter;stroke-width:0.8;"/>
   </g>
   <g id="patch_10">
    <path d="M 648 378 
L 648 229.745455 
" style="fill:none;stroke:#000000;stroke-linecap:square;stroke-linejoin:miter;stroke-width:0.8;"/>
   </g>
   <g id="patch_11">
    <path d="M 90 378 
L 648 378 
" style="fill:none;stroke:#000000;stroke-linecap:square;stroke-linejoin:miter;stroke-width:0.8;"/>
   </g>
   <g id="patch_12">
    <path d="M 90 229.745455 
L 648 229.745455 
" style="fill:none;stroke:#000000;stroke-linecap:square;stroke-linejoin:miter;stroke-width:0.8;"/>
   </g>
   <g id="legend_2">
    <g id="patch_13">
     <path d="M 97 282.800142 
L 160.56875 282.800142 
Q 162.56875 282.800142 162.56875 280.800142 
L 162.56875 236.745455 
Q 162.56875 234.745455 160.56875 234.745455 
L 97 234.745455 
Q 95 234.745455 95 236.745455 
L 95 280.800142 
Q 95 282.800142 97 282.800142 
z
" style="fill:#ffffff;opacity:0.8;stroke:#cccccc;stroke-linejoin:miter;"/>
    </g>
    <g id="line2d_34">
     <path d="M 99 242.843892 
L 119 242.843892 
" style="fill:none;stroke:#008000;stroke-linecap:square;stroke-width:1.5;"/>
    </g>
    <g id="line2d_35"/>
    <g id="text_22">
     <!-- Vessel -->
     <g transform="translate(127 246.343892)scale(0.1 -0.1)">
      <defs>
       <path d="M 28.609375 0 
L 0.78125 72.90625 
L 11.078125 72.90625 
L 34.1875 11.53125 
L 57.328125 72.90625 
L 67.578125 72.90625 
L 39.796875 0 
z
" id="DejaVuSans-86"/>
       <path d="M 56.203125 29.59375 
L 56.203125 25.203125 
L 14.890625 25.203125 
Q 15.484375 15.921875 20.484375 11.0625 
Q 25.484375 6.203125 34.421875 6.203125 
Q 39.59375 6.203125 44.453125 7.46875 
Q 49.3125 8.734375 54.109375 11.28125 
L 54.109375 2.78125 
Q 49.265625 0.734375 44.1875 -0.34375 
Q 39.109375 -1.421875 33.890625 -1.421875 
Q 20.796875 -1.421875 13.15625 6.1875 
Q 5.515625 13.8125 5.515625 26.8125 
Q 5.515625 40.234375 12.765625 48.109375 
Q 20.015625 56 32.328125 56 
Q 43.359375 56 49.78125 48.890625 
Q 56.203125 41.796875 56.203125 29.59375 
z
M 47.21875 32.234375 
Q 47.125 39.59375 43.09375 43.984375 
Q 39.0625 48.390625 32.421875 48.390625 
Q 24.90625 48.390625 20.390625 44.140625 
Q 15.875 39.890625 15.1875 32.171875 
z
" id="DejaVuSans-101"/>
       <path d="M 44.28125 53.078125 
L 44.28125 44.578125 
Q 40.484375 46.53125 36.375 47.5 
Q 32.28125 48.484375 27.875 48.484375 
Q 21.1875 48.484375 17.84375 46.4375 
Q 14.5 44.390625 14.5 40.28125 
Q 14.5 37.15625 16.890625 35.375 
Q 19.28125 33.59375 26.515625 31.984375 
L 29.59375 31.296875 
Q 39.15625 29.25 43.1875 25.515625 
Q 47.21875 21.78125 47.21875 15.09375 
Q 47.21875 7.46875 41.1875 3.015625 
Q 35.15625 -1.421875 24.609375 -1.421875 
Q 20.21875 -1.421875 15.453125 -0.5625 
Q 10.6875 0.296875 5.421875 2 
L 5.421875 11.28125 
Q 10.40625 8.6875 15.234375 7.390625 
Q 20.0625 6.109375 24.8125 6.109375 
Q 31.15625 6.109375 34.5625 8.28125 
Q 37.984375 10.453125 37.984375 14.40625 
Q 37.984375 18.0625 35.515625 20.015625 
Q 33.0625 21.96875 24.703125 23.78125 
L 21.578125 24.515625 
Q 13.234375 26.265625 9.515625 29.90625 
Q 5.8125 33.546875 5.8125 39.890625 
Q 5.8125 47.609375 11.28125 51.796875 
Q 16.75 56 26.8125 56 
Q 31.78125 56 36.171875 55.265625 
Q 40.578125 54.546875 44.28125 53.078125 
z
" id="DejaVuSans-115"/>
       <path d="M 9.421875 75.984375 
L 18.40625 75.984375 
L 18.40625 0 
L 9.421875 0 
z
" id="DejaVuSans-108"/>
      </defs>
      <use xlink:href="#DejaVuSans-86"/>
      <use x="60.658203" xlink:href="#DejaVuSans-101"/>
      <use x="122.181641" xlink:href="#DejaVuSans-115"/>
      <use x="174.28125" xlink:href="#DejaVuSans-115"/>
      <use x="226.380859" xlink:href="#DejaVuSans-101"/>
      <use x="287.904297" xlink:href="#DejaVuSans-108"/>
     </g>
    </g>
    <g id="line2d_36">
     <path d="M 99 257.522017 
L 119 257.522017 
" style="fill:none;stroke:#008000;stroke-dasharray:5.55,2.4;stroke-dashoffset:0;stroke-width:1.5;"/>
    </g>
    <g id="line2d_37"/>
    <g id="text_23">
     <!-- $P_{amb}$ -->
     <g transform="translate(127 261.022017)scale(0.1 -0.1)">
      <use transform="translate(0 0.09375)" xlink:href="#DejaVuSans-Oblique-80"/>
      <use transform="translate(60.302734 -16.3125)scale(0.7)" xlink:href="#DejaVuSans-Oblique-97"/>
      <use transform="translate(103.198242 -16.3125)scale(0.7)" xlink:href="#DejaVuSans-Oblique-109"/>
      <use transform="translate(171.386719 -16.3125)scale(0.7)" xlink:href="#DejaVuSans-Oblique-98"/>
     </g>
    </g>
    <g id="line2d_38">
     <path d="M 99 272.200142 
L 119 272.200142 
" style="fill:none;stroke:#ffc0cb;stroke-dasharray:9.6,2.4,1.5,2.4;stroke-dashoffset:0;stroke-width:1.5;"/>
    </g>
    <g id="line2d_39"/>
    <g id="text_24">
     <!-- $P_{open}$ -->
     <g transform="translate(127 275.700142)scale(0.1 -0.1)">
      <defs>
       <path d="M 25.390625 -1.421875 
Q 15.765625 -1.421875 10.171875 4.515625 
Q 4.59375 10.453125 4.59375 20.703125 
Q 4.59375 26.65625 6.515625 32.828125 
Q 8.453125 39.015625 11.53125 43.21875 
Q 16.359375 49.75 22.3125 52.875 
Q 28.265625 56 35.796875 56 
Q 45.125 56 50.859375 50.1875 
Q 56.59375 44.390625 56.59375 35.015625 
Q 56.59375 28.515625 54.6875 22.0625 
Q 52.78125 15.625 49.703125 11.375 
Q 44.921875 4.828125 38.96875 1.703125 
Q 33.015625 -1.421875 25.390625 -1.421875 
z
M 13.921875 21 
Q 13.921875 13.578125 17.015625 9.890625 
Q 20.125 6.203125 26.421875 6.203125 
Q 35.453125 6.203125 41.375 14.078125 
Q 47.3125 21.96875 47.3125 34.078125 
Q 47.3125 41.15625 44.140625 44.765625 
Q 40.96875 48.390625 34.8125 48.390625 
Q 29.734375 48.390625 25.78125 46.015625 
Q 21.828125 43.65625 18.703125 38.8125 
Q 16.40625 35.203125 15.15625 30.5625 
Q 13.921875 25.921875 13.921875 21 
z
" id="DejaVuSans-Oblique-111"/>
       <path d="M 49.609375 33.6875 
Q 49.609375 40.875 46.484375 44.671875 
Q 43.359375 48.484375 37.5 48.484375 
Q 33.5 48.484375 29.859375 46.4375 
Q 26.21875 44.390625 23.390625 40.484375 
Q 20.609375 36.625 18.9375 31.15625 
Q 17.28125 25.6875 17.28125 20.3125 
Q 17.28125 13.484375 20.40625 9.796875 
Q 23.53125 6.109375 29.296875 6.109375 
Q 33.546875 6.109375 37.1875 8.109375 
Q 40.828125 10.109375 43.40625 13.921875 
Q 46.1875 17.921875 47.890625 23.34375 
Q 49.609375 28.765625 49.609375 33.6875 
z
M 21.78125 46.390625 
Q 25.390625 51.125 30.296875 53.5625 
Q 35.203125 56 41.21875 56 
Q 49.609375 56 54.25 50.5 
Q 58.890625 45.015625 58.890625 35.109375 
Q 58.890625 27 56 19.65625 
Q 53.125 12.3125 47.703125 6.5 
Q 44.09375 2.640625 39.546875 0.609375 
Q 35.015625 -1.421875 29.984375 -1.421875 
Q 24.171875 -1.421875 20.21875 1 
Q 16.265625 3.421875 14.3125 8.203125 
L 8.6875 -20.796875 
L -0.296875 -20.796875 
L 14.40625 54.6875 
L 23.390625 54.6875 
z
" id="DejaVuSans-Oblique-112"/>
       <path d="M 55.71875 33.015625 
L 49.3125 0 
L 40.28125 0 
L 46.6875 32.671875 
Q 47.125 34.96875 47.359375 36.71875 
Q 47.609375 38.484375 47.609375 39.5 
Q 47.609375 43.609375 45.015625 45.890625 
Q 42.4375 48.1875 37.796875 48.1875 
Q 30.5625 48.1875 25.34375 43.375 
Q 20.125 38.578125 18.5 30.328125 
L 12.5 0 
L 3.515625 0 
L 14.109375 54.6875 
L 23.09375 54.6875 
L 21.296875 46.09375 
Q 25.046875 50.828125 30.3125 53.40625 
Q 35.59375 56 41.40625 56 
Q 48.640625 56 52.609375 52.09375 
Q 56.59375 48.1875 56.59375 41.109375 
Q 56.59375 39.359375 56.375 37.359375 
Q 56.15625 35.359375 55.71875 33.015625 
z
" id="DejaVuSans-Oblique-110"/>
      </defs>
      <use transform="translate(0 0.09375)" xlink:href="#DejaVuSans-Oblique-80"/>
      <use transform="translate(60.302734 -16.3125)scale(0.7)" xlink:href="#DejaVuSans-Oblique-111"/>
      <use transform="translate(103.129883 -16.3125)scale(0.7)" xlink:href="#DejaVuSans-Oblique-112"/>
      <use transform="translate(147.563477 -16.3125)scale(0.7)" xlink:href="#DejaVuSans-Oblique-101"/>
      <use transform="translate(190.629883 -16.3125)scale(0.7)" xlink:href="#DejaVuSans-Oblique-110"/>
     </g>
    </g>
   </g>
  </g>
  <g id="axes_3">
   <g id="matplotlib.axis_5">
    <g id="ytick_11">
     <g id="line2d_40">
      <defs>
       <path d="M 0 0 
L 3.5 0 
" id="m4a0441d5d9" style="stroke:#000000;stroke-width:0.8;"/>
      </defs>
      <g>
       <use style="stroke:#000000;stroke-width:0.8;" x="648" xlink:href="#m4a0441d5d9" y="193.289806"/>
      </g>
     </g>
     <g id="text_25">
      <!-- 0 -->
      <g style="fill:#ffa500;" transform="translate(655 197.089025)scale(0.1 -0.1)">
       <use xlink:href="#DejaVuSans-48"/>
      </g>
     </g>
    </g>
    <g id="ytick_12">
     <g id="line2d_41">
      <g>
       <use style="stroke:#000000;stroke-width:0.8;" x="648" xlink:href="#m4a0441d5d9" y="161.305312"/>
      </g>
     </g>
     <g id="text_26">
      <!-- 200 -->
      <g style="fill:#ffa500;" transform="translate(655 165.104531)scale(0.1 -0.1)">
       <use xlink:href="#DejaVuSans-50"/>
       <use x="63.623047" xlink:href="#DejaVuSans-48"/>
       <use x="127.246094" xlink:href="#DejaVuSans-48"/>
      </g>
     </g>
    </g>
    <g id="ytick_13">
     <g id="line2d_42">
      <g>
       <use style="stroke:#000000;stroke-width:0.8;" x="648" xlink:href="#m4a0441d5d9" y="129.320818"/>
      </g>
     </g>
     <g id="text_27">
      <!-- 400 -->
      <g style="fill:#ffa500;" transform="translate(655 133.120036)scale(0.1 -0.1)">
       <use xlink:href="#DejaVuSans-52"/>
       <use x="63.623047" xlink:href="#DejaVuSans-48"/>
       <use x="127.246094" xlink:href="#DejaVuSans-48"/>
      </g>
     </g>
    </g>
    <g id="ytick_14">
     <g id="line2d_43">
      <g>
       <use style="stroke:#000000;stroke-width:0.8;" x="648" xlink:href="#m4a0441d5d9" y="97.336323"/>
      </g>
     </g>
     <g id="text_28">
      <!-- 600 -->
      <g style="fill:#ffa500;" transform="translate(655 101.135542)scale(0.1 -0.1)">
       <use xlink:href="#DejaVuSans-54"/>
       <use x="63.623047" xlink:href="#DejaVuSans-48"/>
       <use x="127.246094" xlink:href="#DejaVuSans-48"/>
      </g>
     </g>
    </g>
    <g id="ytick_15">
     <g id="line2d_44">
      <g>
       <use style="stroke:#000000;stroke-width:0.8;" x="648" xlink:href="#m4a0441d5d9" y="65.351829"/>
      </g>
     </g>
     <g id="text_29">
      <!-- 800 -->
      <g style="fill:#ffa500;" transform="translate(655 69.151048)scale(0.1 -0.1)">
       <use xlink:href="#DejaVuSans-56"/>
       <use x="63.623047" xlink:href="#DejaVuSans-48"/>
       <use x="127.246094" xlink:href="#DejaVuSans-48"/>
      </g>
     </g>
    </g>
    <g id="text_30">
     <!-- P [$Wm^{-2}$] -->
     <g style="fill:#ffa500;" transform="translate(686.507812 149.817273)rotate(-90)scale(0.1 -0.1)">
      <defs>
       <path d="M 9.625 72.90625 
L 19.1875 72.90625 
L 22.703125 10.890625 
L 50.203125 72.90625 
L 61.1875 72.90625 
L 64.796875 10.890625 
L 92 72.90625 
L 102 72.90625 
L 69.578125 0 
L 57.171875 0 
L 53.8125 60.796875 
L 26.515625 0 
L 14.109375 0 
z
" id="DejaVuSans-Oblique-87"/>
       <path d="M 10.59375 35.5 
L 73.1875 35.5 
L 73.1875 27.203125 
L 10.59375 27.203125 
z
" id="DejaVuSans-8722"/>
      </defs>
      <use transform="translate(0 0.765625)" xlink:href="#DejaVuSans-80"/>
      <use transform="translate(60.302734 0.765625)" xlink:href="#DejaVuSans-32"/>
      <use transform="translate(92.089844 0.765625)" xlink:href="#DejaVuSans-91"/>
      <use transform="translate(131.103516 0.765625)" xlink:href="#DejaVuSans-Oblique-87"/>
      <use transform="translate(229.980469 0.765625)" xlink:href="#DejaVuSans-Oblique-109"/>
      <use transform="translate(332.042474 39.046875)scale(0.7)" xlink:href="#DejaVuSans-8722"/>
      <use transform="translate(390.694818 39.046875)scale(0.7)" xlink:href="#DejaVuSans-50"/>
      <use transform="translate(437.965326 0.765625)" xlink:href="#DejaVuSans-93"/>
     </g>
    </g>
   </g>
   <g id="line2d_45">
    <path clip-path="url(#p6bb363e156)" d="M 90 193.289806 
L 101.387887 193.289806 
L 112.775774 193.289806 
L 124.163661 193.289806 
L 135.551548 141.043397 
L 146.939435 73.64622 
L 158.327321 62.655174 
L 169.715208 119.65157 
L 181.103095 191.894367 
L 192.490982 193.289809 
L 203.878869 193.289806 
L 215.266756 193.289806 
L 226.654643 193.289807 
L 238.04253 193.289807 
L 249.430417 124.581021 
L 260.818304 65.837172 
L 272.20619 69.177601 
L 283.594077 137.089828 
L 294.981964 193.286623 
L 306.369851 193.289806 
L 317.757738 193.289806 
L 329.145625 193.289806 
L 340.533512 193.289806 
L 351.921399 189.697466 
L 363.309286 109.565102 
L 374.697173 60.858847 
L 386.08506 78.26074 
L 397.472946 154.737631 
L 408.860833 193.28981 
L 420.24872 193.289807 
L 431.636607 193.289806 
L 443.024494 193.289807 
L 454.412381 193.289806 
L 465.800268 173.695375 
L 477.188155 95.894649 
L 488.576042 58.578843 
L 499.963929 89.904955 
L 511.351815 171.287992 
L 522.739702 193.289806 
L 534.127589 193.289806 
L 545.515476 193.289806 
L 556.903363 193.289806 
L 568.29125 193.289806 
L 579.679137 157.47529 
L 591.067024 83.467447 
L 602.454911 59.179078 
L 613.842798 104.364459 
L 625.230685 185.123273 
L 636.618571 193.289805 
L 648.006458 193.289809 
" style="fill:none;stroke:#ffff00;stroke-dasharray:5.55,2.4;stroke-dashoffset:0;stroke-width:1.5;"/>
   </g>
   <g id="line2d_46">
    <path clip-path="url(#p6bb363e156)" d="M 90 193.289467 
L 101.387887 193.289803 
L 112.775774 193.292143 
L 124.163661 193.293168 
L 135.551548 192.974927 
L 146.939435 192.568938 
L 158.327321 192.490681 
L 169.715208 192.828731 
L 181.103095 193.279481 
L 192.490982 193.285387 
L 203.878869 193.288532 
L 215.266756 193.28543 
L 226.654643 193.298887 
L 238.04253 193.298885 
L 249.430417 192.859672 
L 260.818304 192.44546 
L 272.20619 192.452435 
L 283.594077 192.896142 
L 294.981964 193.291205 
L 306.369851 193.285945 
L 317.757738 193.288152 
L 329.145625 193.292289 
L 340.533512 193.294897 
L 351.921399 193.275216 
L 363.309286 192.716428 
L 374.697173 192.369315 
L 386.08506 192.471075 
L 397.472946 193.001524 
L 408.860833 193.280176 
L 420.24872 193.28532 
L 431.636607 193.286146 
L 443.024494 193.286833 
L 454.412381 193.289332 
L 465.800268 193.17143 
L 477.188155 192.639144 
L 488.576042 192.463239 
L 499.963929 192.637326 
L 511.351815 193.14463 
L 522.739702 193.287595 
L 534.127589 193.288439 
L 545.515476 193.290768 
L 556.903363 193.294456 
L 568.29125 193.293988 
L 579.679137 193.068889 
L 591.067024 192.616857 
L 602.454911 192.427479 
L 613.842798 192.685768 
L 625.230685 193.229512 
L 636.618571 193.298667 
L 648.006458 193.289742 
" style="fill:none;stroke:#ffa500;stroke-dasharray:1.5,2.475;stroke-dashoffset:0;stroke-width:1.5;"/>
   </g>
   <g id="line2d_47">
    <path clip-path="url(#p6bb363e156)" d="M 90 193.287428 
L 101.387887 193.289778 
L 112.775774 193.306944 
L 124.163661 193.314192 
L 135.551548 190.984937 
L 146.939435 188.034081 
L 158.327321 187.53775 
L 169.715208 190.021639 
L 181.103095 193.222622 
L 192.490982 193.258794 
L 203.878869 193.280785 
L 215.266756 193.260379 
L 226.654643 193.355702 
L 238.04253 193.353291 
L 249.430417 190.33963 
L 260.818304 187.794627 
L 272.20619 187.913485 
L 283.594077 190.822667 
L 294.981964 193.299297 
L 306.369851 193.262685 
L 317.757738 193.27814 
L 329.145625 193.307541 
L 340.533512 193.325095 
L 351.921399 193.194282 
L 363.309286 189.725445 
L 374.697173 187.617358 
L 386.08506 188.306667 
L 397.472946 191.571995 
L 408.860833 193.23095 
L 420.24872 193.26143 
L 431.636607 193.266195 
L 443.024494 193.271251 
L 454.412381 193.286852 
L 465.800268 192.516247 
L 477.188155 189.1235 
L 488.576042 187.383139 
L 499.963929 188.784516 
L 511.351815 192.297941 
L 522.739702 193.275004 
L 534.127589 193.281025 
L 545.515476 193.296523 
L 556.903363 193.322726 
L 568.29125 193.320003 
L 579.679137 191.737069 
L 591.067024 188.496678 
L 602.454911 187.446101 
L 613.842798 189.423869 
L 625.230685 192.899014 
L 636.618571 193.345803 
L 648.006458 193.289374 
" style="fill:none;stroke:#ffa500;stroke-linecap:square;stroke-width:1.5;"/>
   </g>
   <g id="patch_14">
    <path d="M 90 200.094545 
L 90 51.84 
" style="fill:none;stroke:#000000;stroke-linecap:square;stroke-linejoin:miter;stroke-width:0.8;"/>
   </g>
   <g id="patch_15">
    <path d="M 648 200.094545 
L 648 51.84 
" style="fill:none;stroke:#000000;stroke-linecap:square;stroke-linejoin:miter;stroke-width:0.8;"/>
   </g>
   <g id="patch_16">
    <path d="M 90 200.094545 
L 648 200.094545 
" style="fill:none;stroke:#000000;stroke-linecap:square;stroke-linejoin:miter;stroke-width:0.8;"/>
   </g>
   <g id="patch_17">
    <path d="M 90 51.84 
L 648 51.84 
" style="fill:none;stroke:#000000;stroke-linecap:square;stroke-linejoin:miter;stroke-width:0.8;"/>
   </g>
   <g id="legend_3">
    <g id="patch_18">
     <path d="M 578.173437 149.901648 
L 641 149.901648 
Q 643 149.901648 643 147.901648 
L 643 104.032898 
Q 643 102.032898 641 102.032898 
L 578.173437 102.032898 
Q 576.173437 102.032898 576.173437 104.032898 
L 576.173437 147.901648 
Q 576.173437 149.901648 578.173437 149.901648 
z
" style="fill:#ffffff;opacity:0.8;stroke:#cccccc;stroke-linejoin:miter;"/>
    </g>
    <g id="line2d_48">
     <path d="M 580.173437 110.131335 
L 600.173437 110.131335 
" style="fill:none;stroke:#ffff00;stroke-dasharray:5.55,2.4;stroke-dashoffset:0;stroke-width:1.5;"/>
    </g>
    <g id="line2d_49"/>
    <g id="text_31">
     <!-- P_sun -->
     <g transform="translate(608.173437 113.631335)scale(0.1 -0.1)">
      <defs>
       <path d="M 50.984375 -16.609375 
L 50.984375 -23.578125 
L -0.984375 -23.578125 
L -0.984375 -16.609375 
z
" id="DejaVuSans-95"/>
       <path d="M 8.5 21.578125 
L 8.5 54.6875 
L 17.484375 54.6875 
L 17.484375 21.921875 
Q 17.484375 14.15625 20.5 10.265625 
Q 23.53125 6.390625 29.59375 6.390625 
Q 36.859375 6.390625 41.078125 11.03125 
Q 45.3125 15.671875 45.3125 23.6875 
L 45.3125 54.6875 
L 54.296875 54.6875 
L 54.296875 0 
L 45.3125 0 
L 45.3125 8.40625 
Q 42.046875 3.421875 37.71875 1 
Q 33.40625 -1.421875 27.6875 -1.421875 
Q 18.265625 -1.421875 13.375 4.4375 
Q 8.5 10.296875 8.5 21.578125 
z
M 31.109375 56 
z
" id="DejaVuSans-117"/>
       <path d="M 54.890625 33.015625 
L 54.890625 0 
L 45.90625 0 
L 45.90625 32.71875 
Q 45.90625 40.484375 42.875 44.328125 
Q 39.84375 48.1875 33.796875 48.1875 
Q 26.515625 48.1875 22.3125 43.546875 
Q 18.109375 38.921875 18.109375 30.90625 
L 18.109375 0 
L 9.078125 0 
L 9.078125 54.6875 
L 18.109375 54.6875 
L 18.109375 46.1875 
Q 21.34375 51.125 25.703125 53.5625 
Q 30.078125 56 35.796875 56 
Q 45.21875 56 50.046875 50.171875 
Q 54.890625 44.34375 54.890625 33.015625 
z
" id="DejaVuSans-110"/>
      </defs>
      <use xlink:href="#DejaVuSans-80"/>
      <use x="60.302734" xlink:href="#DejaVuSans-95"/>
      <use x="110.302734" xlink:href="#DejaVuSans-115"/>
      <use x="162.402344" xlink:href="#DejaVuSans-117"/>
      <use x="225.78125" xlink:href="#DejaVuSans-110"/>
     </g>
    </g>
    <g id="line2d_50">
     <path d="M 580.173437 125.087585 
L 600.173437 125.087585 
" style="fill:none;stroke:#ffa500;stroke-dasharray:1.5,2.475;stroke-dashoffset:0;stroke-width:1.5;"/>
    </g>
    <g id="line2d_51"/>
    <g id="text_32">
     <!-- Q_rad -->
     <g transform="translate(608.173437 128.587585)scale(0.1 -0.1)">
      <defs>
       <path d="M 39.40625 66.21875 
Q 28.65625 66.21875 22.328125 58.203125 
Q 16.015625 50.203125 16.015625 36.375 
Q 16.015625 22.609375 22.328125 14.59375 
Q 28.65625 6.59375 39.40625 6.59375 
Q 50.140625 6.59375 56.421875 14.59375 
Q 62.703125 22.609375 62.703125 36.375 
Q 62.703125 50.203125 56.421875 58.203125 
Q 50.140625 66.21875 39.40625 66.21875 
z
M 53.21875 1.3125 
L 66.21875 -12.890625 
L 54.296875 -12.890625 
L 43.5 -1.21875 
Q 41.890625 -1.3125 41.03125 -1.359375 
Q 40.1875 -1.421875 39.40625 -1.421875 
Q 24.03125 -1.421875 14.8125 8.859375 
Q 5.609375 19.140625 5.609375 36.375 
Q 5.609375 53.65625 14.8125 63.9375 
Q 24.03125 74.21875 39.40625 74.21875 
Q 54.734375 74.21875 63.90625 63.9375 
Q 73.09375 53.65625 73.09375 36.375 
Q 73.09375 23.6875 67.984375 14.640625 
Q 62.890625 5.609375 53.21875 1.3125 
z
" id="DejaVuSans-81"/>
       <path d="M 41.109375 46.296875 
Q 39.59375 47.171875 37.8125 47.578125 
Q 36.03125 48 33.890625 48 
Q 26.265625 48 22.1875 43.046875 
Q 18.109375 38.09375 18.109375 28.8125 
L 18.109375 0 
L 9.078125 0 
L 9.078125 54.6875 
L 18.109375 54.6875 
L 18.109375 46.1875 
Q 20.953125 51.171875 25.484375 53.578125 
Q 30.03125 56 36.53125 56 
Q 37.453125 56 38.578125 55.875 
Q 39.703125 55.765625 41.0625 55.515625 
z
" id="DejaVuSans-114"/>
       <path d="M 34.28125 27.484375 
Q 23.390625 27.484375 19.1875 25 
Q 14.984375 22.515625 14.984375 16.5 
Q 14.984375 11.71875 18.140625 8.90625 
Q 21.296875 6.109375 26.703125 6.109375 
Q 34.1875 6.109375 38.703125 11.40625 
Q 43.21875 16.703125 43.21875 25.484375 
L 43.21875 27.484375 
z
M 52.203125 31.203125 
L 52.203125 0 
L 43.21875 0 
L 43.21875 8.296875 
Q 40.140625 3.328125 35.546875 0.953125 
Q 30.953125 -1.421875 24.3125 -1.421875 
Q 15.921875 -1.421875 10.953125 3.296875 
Q 6 8.015625 6 15.921875 
Q 6 25.140625 12.171875 29.828125 
Q 18.359375 34.515625 30.609375 34.515625 
L 43.21875 34.515625 
L 43.21875 35.40625 
Q 43.21875 41.609375 39.140625 45 
Q 35.0625 48.390625 27.6875 48.390625 
Q 23 48.390625 18.546875 47.265625 
Q 14.109375 46.140625 10.015625 43.890625 
L 10.015625 52.203125 
Q 14.9375 54.109375 19.578125 55.046875 
Q 24.21875 56 28.609375 56 
Q 40.484375 56 46.34375 49.84375 
Q 52.203125 43.703125 52.203125 31.203125 
z
" id="DejaVuSans-97"/>
       <path d="M 45.40625 46.390625 
L 45.40625 75.984375 
L 54.390625 75.984375 
L 54.390625 0 
L 45.40625 0 
L 45.40625 8.203125 
Q 42.578125 3.328125 38.25 0.953125 
Q 33.9375 -1.421875 27.875 -1.421875 
Q 17.96875 -1.421875 11.734375 6.484375 
Q 5.515625 14.40625 5.515625 27.296875 
Q 5.515625 40.1875 11.734375 48.09375 
Q 17.96875 56 27.875 56 
Q 33.9375 56 38.25 53.625 
Q 42.578125 51.265625 45.40625 46.390625 
z
M 14.796875 27.296875 
Q 14.796875 17.390625 18.875 11.75 
Q 22.953125 6.109375 30.078125 6.109375 
Q 37.203125 6.109375 41.296875 11.75 
Q 45.40625 17.390625 45.40625 27.296875 
Q 45.40625 37.203125 41.296875 42.84375 
Q 37.203125 48.484375 30.078125 48.484375 
Q 22.953125 48.484375 18.875 42.84375 
Q 14.796875 37.203125 14.796875 27.296875 
z
" id="DejaVuSans-100"/>
      </defs>
      <use xlink:href="#DejaVuSans-81"/>
      <use x="78.710938" xlink:href="#DejaVuSans-95"/>
      <use x="128.710938" xlink:href="#DejaVuSans-114"/>
      <use x="169.824219" xlink:href="#DejaVuSans-97"/>
      <use x="231.103516" xlink:href="#DejaVuSans-100"/>
     </g>
    </g>
    <g id="line2d_52">
     <path d="M 580.173437 140.043835 
L 600.173437 140.043835 
" style="fill:none;stroke:#ffa500;stroke-linecap:square;stroke-width:1.5;"/>
    </g>
    <g id="line2d_53"/>
    <g id="text_33">
     <!-- Q_con -->
     <g transform="translate(608.173437 143.543835)scale(0.1 -0.1)">
      <defs>
       <path d="M 48.78125 52.59375 
L 48.78125 44.1875 
Q 44.96875 46.296875 41.140625 47.34375 
Q 37.3125 48.390625 33.40625 48.390625 
Q 24.65625 48.390625 19.8125 42.84375 
Q 14.984375 37.3125 14.984375 27.296875 
Q 14.984375 17.28125 19.8125 11.734375 
Q 24.65625 6.203125 33.40625 6.203125 
Q 37.3125 6.203125 41.140625 7.25 
Q 44.96875 8.296875 48.78125 10.40625 
L 48.78125 2.09375 
Q 45.015625 0.34375 40.984375 -0.53125 
Q 36.96875 -1.421875 32.421875 -1.421875 
Q 20.0625 -1.421875 12.78125 6.34375 
Q 5.515625 14.109375 5.515625 27.296875 
Q 5.515625 40.671875 12.859375 48.328125 
Q 20.21875 56 33.015625 56 
Q 37.15625 56 41.109375 55.140625 
Q 45.0625 54.296875 48.78125 52.59375 
z
" id="DejaVuSans-99"/>
       <path d="M 30.609375 48.390625 
Q 23.390625 48.390625 19.1875 42.75 
Q 14.984375 37.109375 14.984375 27.296875 
Q 14.984375 17.484375 19.15625 11.84375 
Q 23.34375 6.203125 30.609375 6.203125 
Q 37.796875 6.203125 41.984375 11.859375 
Q 46.1875 17.53125 46.1875 27.296875 
Q 46.1875 37.015625 41.984375 42.703125 
Q 37.796875 48.390625 30.609375 48.390625 
z
M 30.609375 56 
Q 42.328125 56 49.015625 48.375 
Q 55.71875 40.765625 55.71875 27.296875 
Q 55.71875 13.875 49.015625 6.21875 
Q 42.328125 -1.421875 30.609375 -1.421875 
Q 18.84375 -1.421875 12.171875 6.21875 
Q 5.515625 13.875 5.515625 27.296875 
Q 5.515625 40.765625 12.171875 48.375 
Q 18.84375 56 30.609375 56 
z
" id="DejaVuSans-111"/>
      </defs>
      <use xlink:href="#DejaVuSans-81"/>
      <use x="78.710938" xlink:href="#DejaVuSans-95"/>
      <use x="128.710938" xlink:href="#DejaVuSans-99"/>
      <use x="183.691406" xlink:href="#DejaVuSans-111"/>
      <use x="244.873047" xlink:href="#DejaVuSans-110"/>
     </g>
    </g>
   </g>
  </g>
  <g id="axes_4">
   <g id="matplotlib.axis_6">
    <g id="ytick_16">
     <g id="line2d_54">
      <g>
       <use style="stroke:#000000;stroke-width:0.8;" x="648" xlink:href="#m4a0441d5d9" y="354.238753"/>
      </g>
     </g>
     <g id="text_34">
      <!-- 0.00400 -->
      <g style="fill:#0000ff;" transform="translate(655 358.037972)scale(0.1 -0.1)">
       <use xlink:href="#DejaVuSans-48"/>
       <use x="63.623047" xlink:href="#DejaVuSans-46"/>
       <use x="95.410156" xlink:href="#DejaVuSans-48"/>
       <use x="159.033203" xlink:href="#DejaVuSans-48"/>
       <use x="222.65625" xlink:href="#DejaVuSans-52"/>
       <use x="286.279297" xlink:href="#DejaVuSans-48"/>
       <use x="349.902344" xlink:href="#DejaVuSans-48"/>
      </g>
     </g>
    </g>
    <g id="ytick_17">
     <g id="line2d_55">
      <g>
       <use style="stroke:#000000;stroke-width:0.8;" x="648" xlink:href="#m4a0441d5d9" y="325.76856"/>
      </g>
     </g>
     <g id="text_35">
      <!-- 0.00405 -->
      <g style="fill:#0000ff;" transform="translate(655 329.567779)scale(0.1 -0.1)">
       <use xlink:href="#DejaVuSans-48"/>
       <use x="63.623047" xlink:href="#DejaVuSans-46"/>
       <use x="95.410156" xlink:href="#DejaVuSans-48"/>
       <use x="159.033203" xlink:href="#DejaVuSans-48"/>
       <use x="222.65625" xlink:href="#DejaVuSans-52"/>
       <use x="286.279297" xlink:href="#DejaVuSans-48"/>
       <use x="349.902344" xlink:href="#DejaVuSans-53"/>
      </g>
     </g>
    </g>
    <g id="ytick_18">
     <g id="line2d_56">
      <g>
       <use style="stroke:#000000;stroke-width:0.8;" x="648" xlink:href="#m4a0441d5d9" y="297.298368"/>
      </g>
     </g>
     <g id="text_36">
      <!-- 0.00410 -->
      <g style="fill:#0000ff;" transform="translate(655 301.097586)scale(0.1 -0.1)">
       <use xlink:href="#DejaVuSans-48"/>
       <use x="63.623047" xlink:href="#DejaVuSans-46"/>
       <use x="95.410156" xlink:href="#DejaVuSans-48"/>
       <use x="159.033203" xlink:href="#DejaVuSans-48"/>
       <use x="222.65625" xlink:href="#DejaVuSans-52"/>
       <use x="286.279297" xlink:href="#DejaVuSans-49"/>
       <use x="349.902344" xlink:href="#DejaVuSans-48"/>
      </g>
     </g>
    </g>
    <g id="ytick_19">
     <g id="line2d_57">
      <g>
       <use style="stroke:#000000;stroke-width:0.8;" x="648" xlink:href="#m4a0441d5d9" y="268.828175"/>
      </g>
     </g>
     <g id="text_37">
      <!-- 0.00415 -->
      <g style="fill:#0000ff;" transform="translate(655 272.627394)scale(0.1 -0.1)">
       <use xlink:href="#DejaVuSans-48"/>
       <use x="63.623047" xlink:href="#DejaVuSans-46"/>
       <use x="95.410156" xlink:href="#DejaVuSans-48"/>
       <use x="159.033203" xlink:href="#DejaVuSans-48"/>
       <use x="222.65625" xlink:href="#DejaVuSans-52"/>
       <use x="286.279297" xlink:href="#DejaVuSans-49"/>
       <use x="349.902344" xlink:href="#DejaVuSans-53"/>
      </g>
     </g>
    </g>
    <g id="ytick_20">
     <g id="line2d_58">
      <g>
       <use style="stroke:#000000;stroke-width:0.8;" x="648" xlink:href="#m4a0441d5d9" y="240.357983"/>
      </g>
     </g>
     <g id="text_38">
      <!-- 0.00420 -->
      <g style="fill:#0000ff;" transform="translate(655 244.157201)scale(0.1 -0.1)">
       <use xlink:href="#DejaVuSans-48"/>
       <use x="63.623047" xlink:href="#DejaVuSans-46"/>
       <use x="95.410156" xlink:href="#DejaVuSans-48"/>
       <use x="159.033203" xlink:href="#DejaVuSans-48"/>
       <use x="222.65625" xlink:href="#DejaVuSans-52"/>
       <use x="286.279297" xlink:href="#DejaVuSans-50"/>
       <use x="349.902344" xlink:href="#DejaVuSans-48"/>
      </g>
     </g>
    </g>
    <g id="text_39">
     <!-- n [$mol$] -->
     <g style="fill:#0000ff;" transform="translate(707.951563 321.872727)rotate(-90)scale(0.1 -0.1)">
      <use transform="translate(0 0.015625)" xlink:href="#DejaVuSans-110"/>
      <use transform="translate(63.378906 0.015625)" xlink:href="#DejaVuSans-32"/>
      <use transform="translate(95.166016 0.015625)" xlink:href="#DejaVuSans-91"/>
      <use transform="translate(134.179688 0.015625)" xlink:href="#DejaVuSans-Oblique-109"/>
      <use transform="translate(231.591797 0.015625)" xlink:href="#DejaVuSans-Oblique-111"/>
      <use transform="translate(292.773438 0.015625)" xlink:href="#DejaVuSans-Oblique-108"/>
      <use transform="translate(320.556641 0.015625)" xlink:href="#DejaVuSans-93"/>
     </g>
    </g>
   </g>
   <g id="line2d_59">
    <path clip-path="url(#pc84052a2e9)" d="M 90 250.274307 
L 101.387887 250.274307 
L 112.775774 250.274307 
L 124.163661 250.274307 
L 135.551548 250.274307 
L 146.939435 274.829227 
L 158.327321 274.829227 
L 169.715208 274.829227 
L 181.103095 274.829227 
L 192.490982 245.906963 
L 203.878869 236.484298 
L 215.266756 236.484298 
L 226.654643 236.484298 
L 238.04253 269.820744 
L 249.430417 291.227299 
L 260.818304 312.556145 
L 272.20619 323.266046 
L 283.594077 323.266046 
L 294.981964 305.448463 
L 306.369851 300.484713 
L 317.757738 291.766572 
L 329.145625 287.519832 
L 340.533512 287.519832 
L 351.921399 287.519832 
L 363.309286 332.776846 
L 374.697173 360.858969 
L 386.08506 371.261157 
L 397.472946 371.261157 
L 408.860833 344.35313 
L 420.24872 322.72965 
L 431.636607 316.293941 
L 443.024494 303.643874 
L 454.412381 303.643874 
L 465.800268 303.643874 
L 477.188155 324.59925 
L 488.576042 328.479753 
L 499.963929 310.523159 
L 511.351815 296.254768 
L 522.739702 279.057099 
L 534.127589 274.821224 
L 545.515476 270.419591 
L 556.903363 268.033854 
L 568.29125 268.033854 
L 579.679137 268.033854 
L 591.067024 279.583207 
L 602.454911 290.492841 
L 613.842798 290.492841 
L 625.230685 290.492841 
L 636.618571 283.151499 
L 648.006458 278.775759 
" style="fill:none;stroke:#0000ff;stroke-dasharray:1.5,2.475;stroke-dashoffset:0;stroke-width:1.5;"/>
   </g>
   <g id="patch_19">
    <path d="M 90 378 
L 90 229.745455 
" style="fill:none;stroke:#000000;stroke-linecap:square;stroke-linejoin:miter;stroke-width:0.8;"/>
   </g>
   <g id="patch_20">
    <path d="M 648 378 
L 648 229.745455 
" style="fill:none;stroke:#000000;stroke-linecap:square;stroke-linejoin:miter;stroke-width:0.8;"/>
   </g>
   <g id="patch_21">
    <path d="M 90 378 
L 648 378 
" style="fill:none;stroke:#000000;stroke-linecap:square;stroke-linejoin:miter;stroke-width:0.8;"/>
   </g>
   <g id="patch_22">
    <path d="M 90 229.745455 
L 648 229.745455 
" style="fill:none;stroke:#000000;stroke-linecap:square;stroke-linejoin:miter;stroke-width:0.8;"/>
   </g>
  </g>
 </g>
 <defs>
  <clipPath id="p6bb363e156">
   <rect height="148.254545" width="558" x="90" y="51.84"/>
  </clipPath>
  <clipPath id="pc84052a2e9">
   <rect height="148.254545" width="558" x="90" y="229.745455"/>
  </clipPath>
 </defs>
</svg>
